<svg width="20" height="20" viewBox="0 0 20 20" fill="none" xmlns="http://www.w3.org/2000/svg">
<path d="M11.666 6.66602H12.4993C12.7204 6.66602 12.9323 6.57822 13.0886 6.42194C13.2449 6.26566 13.3327 6.0537 13.3327 5.83268C13.3327 5.61167 13.2449 5.39971 13.0886 5.24343C12.9323 5.08715 12.7204 4.99935 12.4993 4.99935H11.666C11.445 4.99935 11.233 5.08715 11.0768 5.24343C10.9205 5.39971 10.8327 5.61167 10.8327 5.83268C10.8327 6.0537 10.9205 6.26566 11.0768 6.42194C11.233 6.57822 11.445 6.66602 11.666 6.66602ZM11.666 9.99935H12.4993C12.7204 9.99935 12.9323 9.91155 13.0886 9.75527C13.2449 9.59899 13.3327 9.38703 13.3327 9.16602C13.3327 8.945 13.2449 8.73304 13.0886 8.57676C12.9323 8.42048 12.7204 8.33268 12.4993 8.33268H11.666C11.445 8.33268 11.233 8.42048 11.0768 8.57676C10.9205 8.73304 10.8327 8.945 10.8327 9.16602C10.8327 9.38703 10.9205 9.59899 11.0768 9.75527C11.233 9.91155 11.445 9.99935 11.666 9.99935ZM7.49935 6.66602H8.33268C8.5537 6.66602 8.76566 6.57822 8.92194 6.42194C9.07822 6.26566 9.16602 6.0537 9.16602 5.83268C9.16602 5.61167 9.07822 5.39971 8.92194 5.24343C8.76566 5.08715 8.5537 4.99935 8.33268 4.99935H7.49935C7.27834 4.99935 7.06637 5.08715 6.91009 5.24343C6.75381 5.39971 6.66602 5.61167 6.66602 5.83268C6.66602 6.0537 6.75381 6.26566 6.91009 6.42194C7.06637 6.57822 7.27834 6.66602 7.49935 6.66602ZM7.49935 9.99935H8.33268C8.5537 9.99935 8.76566 9.91155 8.92194 9.75527C9.07822 9.59899 9.16602 9.38703 9.16602 9.16602C9.16602 8.945 9.07822 8.73304 8.92194 8.57676C8.76566 8.42048 8.5537 8.33268 8.33268 8.33268H7.49935C7.27834 8.33268 7.06637 8.42048 6.91009 8.57676C6.75381 8.73304 6.66602 8.945 6.66602 9.16602C6.66602 9.38703 6.75381 9.59899 6.91009 9.75527C7.06637 9.91155 7.27834 9.99935 7.49935 9.99935ZM17.4993 16.666H16.666V2.49935C16.666 2.27834 16.5782 2.06637 16.4219 1.91009C16.2657 1.75381 16.0537 1.66602 15.8327 1.66602H4.16602C3.945 1.66602 3.73304 1.75381 3.57676 1.91009C3.42048 2.06637 3.33268 2.27834 3.33268 2.49935V16.666H2.49935C2.27834 16.666 2.06637 16.7538 1.91009 16.9101C1.75381 17.0664 1.66602 17.2783 1.66602 17.4993C1.66602 17.7204 1.75381 17.9323 1.91009 18.0886C2.06637 18.2449 2.27834 18.3327 2.49935 18.3327H17.4993C17.7204 18.3327 17.9323 18.2449 18.0886 18.0886C18.2449 17.9323 18.3327 17.7204 18.3327 17.4993C18.3327 17.2783 18.2449 17.0664 18.0886 16.9101C17.9323 16.7538 17.7204 16.666 17.4993 16.666ZM10.8327 16.666H9.16602V13.3327H10.8327V16.666ZM14.9993 16.666H12.4993V12.4993C12.4993 12.2783 12.4116 12.0664 12.2553 11.9101C12.099 11.7538 11.887 11.666 11.666 11.666H8.33268C8.11167 11.666 7.89971 11.7538 7.74343 11.9101C7.58715 12.0664 7.49935 12.2783 7.49935 12.4993V16.666H4.99935V3.33268H14.9993V16.666Z" fill="#B4B9C8"/>
</svg>
