<svg width="20" height="20" viewBox="0 0 20 20" fill="none" xmlns="http://www.w3.org/2000/svg">
<path fill-rule="evenodd" clip-rule="evenodd" d="M10.0007 4.99935C8.38982 4.99935 7.08398 6.30518 7.08398 7.91602C7.08398 9.52685 8.38982 10.8327 10.0007 10.8327C11.6115 10.8327 12.9173 9.52685 12.9173 7.91602C12.9173 6.30518 11.6115 4.99935 10.0007 4.99935ZM10.0007 9.16602C9.31029 9.16602 8.75065 8.60637 8.75065 7.91602C8.75065 7.22566 9.31029 6.66602 10.0007 6.66602C10.691 6.66602 11.2507 7.22566 11.2507 7.91602C11.2507 8.60637 10.691 9.16602 10.0007 9.16602Z" fill="#B4B9C8"/>
<path fill-rule="evenodd" clip-rule="evenodd" d="M10.0007 1.66602C6.34463 1.66583 3.37054 4.61018 3.33398 8.26602C3.33398 12.8247 9.18844 17.8982 9.45762 18.1315L9.45898 18.1327C9.77084 18.3994 10.2305 18.3994 10.5423 18.1327C10.834 17.916 16.6673 12.8327 16.6673 8.26601C16.6308 4.61018 13.6567 1.66582 10.0007 1.66602ZM10.0007 16.3743C8.60898 15.0494 5.00065 11.3743 5.00065 8.26602C5.00065 5.50459 7.23923 3.26602 10.0007 3.26602C12.7621 3.26602 15.0007 5.50459 15.0007 8.26602C15.0007 11.3493 11.3923 15.0494 10.0007 16.3743Z" fill="#B4B9C8"/>
</svg>
