<svg width="65" height="52" viewBox="0 0 65 52" fill="none" xmlns="http://www.w3.org/2000/svg">
<path d="M53.3924 13.6718C51.4066 9.10883 47.9795 5.32281 43.6361 2.89392C39.2928 0.465037 34.2729 -0.472733 29.3456 0.224317C24.4183 0.921368 19.8554 3.21478 16.3562 6.75313C12.8571 10.2915 10.6146 14.8796 9.97241 19.8143C6.87382 20.5564 4.15563 22.4105 2.33406 25.0247C0.512489 27.6388 -0.285612 30.8309 0.0913213 33.9948C0.468255 37.1586 1.99397 40.0738 4.37873 42.1869C6.76349 44.2999 9.84121 45.4635 13.0274 45.4568C13.8894 45.4568 14.716 45.1144 15.3255 44.5049C15.935 43.8954 16.2774 43.0688 16.2774 42.2068C16.2774 41.3449 15.935 40.5182 15.3255 39.9087C14.716 39.2992 13.8894 38.9568 13.0274 38.9568C11.3035 38.9568 9.65021 38.272 8.43122 37.053C7.21223 35.834 6.52741 34.1807 6.52741 32.4568C6.52741 30.7329 7.21223 29.0796 8.43122 27.8606C9.65021 26.6416 11.3035 25.9568 13.0274 25.9568C13.8894 25.9568 14.716 25.6144 15.3255 25.0049C15.935 24.3954 16.2774 23.5688 16.2774 22.7068C16.2857 18.863 17.6563 15.1465 20.1458 12.2177C22.6352 9.28891 26.0823 7.3374 29.8746 6.7099C33.6669 6.0824 37.5588 6.81953 40.859 8.79034C44.1592 10.7611 46.6539 13.838 47.8999 17.4743C48.0857 18.0328 48.4196 18.5303 48.8661 18.9138C49.3126 19.2973 49.8548 19.5524 50.4349 19.6518C52.5996 20.0609 54.562 21.191 56.0023 22.858C57.4425 24.5251 58.2757 26.6307 58.3662 28.8319C58.4567 31.0331 57.799 33.2 56.5004 34.9796C55.2018 36.7591 53.3388 38.0465 51.2149 38.6318C50.3788 38.8473 49.6626 39.3861 49.2237 40.1297C48.7849 40.8733 48.6594 41.7607 48.8749 42.5968C49.0904 43.4329 49.6292 44.1492 50.3728 44.588C51.1164 45.0268 52.0038 45.1523 52.8399 44.9368C56.2602 44.033 59.2921 42.0378 61.4752 39.2541C63.6583 36.4704 64.8734 33.0503 64.9359 29.5132C64.9984 25.9761 63.9049 22.5152 61.8215 19.6561C59.7381 16.797 56.7786 14.6959 53.3924 13.6718ZM34.8349 20.3993C34.5258 20.1034 34.1614 19.8715 33.7624 19.7168C32.9712 19.3918 32.0837 19.3918 31.2924 19.7168C30.8935 19.8715 30.529 20.1034 30.2199 20.3993L20.4699 30.1493C19.8579 30.7613 19.5141 31.5913 19.5141 32.4568C19.5141 33.3223 19.8579 34.1523 20.4699 34.7643C21.0819 35.3763 21.9119 35.7201 22.7774 35.7201C23.6429 35.7201 24.4729 35.3763 25.0849 34.7643L29.2774 30.5393V48.7068C29.2774 49.5688 29.6198 50.3954 30.2293 51.0049C30.8388 51.6144 31.6655 51.9568 32.5274 51.9568C33.3894 51.9568 34.216 51.6144 34.8255 51.0049C35.435 50.3954 35.7774 49.5688 35.7774 48.7068V30.5393L39.9699 34.7643C40.272 35.0689 40.6315 35.3107 41.0275 35.4757C41.4236 35.6407 41.8484 35.7257 42.2774 35.7257C42.7065 35.7257 43.1312 35.6407 43.5273 35.4757C43.9233 35.3107 44.2828 35.0689 44.5849 34.7643C44.8895 34.4622 45.1313 34.1027 45.2963 33.7067C45.4613 33.3106 45.5463 32.8858 45.5463 32.4568C45.5463 32.0278 45.4613 31.603 45.2963 31.2069C45.1313 30.8109 44.8895 30.4514 44.5849 30.1493L34.8349 20.3993Z" fill="#B4B9C8"/>
</svg>
